<svg id="eFMnmLPogyv1" xmlns="http://www.w3.org/2000/svg" xmlns:xlink="http://www.w3.org/1999/xlink" viewBox="0 0 16 16" shape-rendering="geometricPrecision" text-rendering="geometricPrecision" project-id="79c510093c224243bb1d9453c7fcfdc1" export-id="12254b1124e34831bdaffe1353e4f6d8" cached="false"><g transform="matrix(.375608 0 0 0.381872-1.387621-1.546994)"><path d="M42.641,21.1l2.494-2.494c.093469-.093706.145972-.220648.146-.353.000237-.132699-.052286-.260049-.146-.354l-2.977-2.977c-.19525-.195191-.51175-.195191-.707,0l-2.494,2.494c-1.413104-1.004854-2.985938-1.763548-4.652-2.244.012252-.037272.019975-.075883.023-.115v-5.347h1.523c.276142,0,.5-.223858.5-.5v-4.21c0-.276142-.223858-.5-.5-.5h-11.644c-.276142,0-.5.223858-.5.5v4.21c0,.276142.223858.5.5.5h1.522v5.347c.002871.039227.010942.077899.024.115-.889686.257692-1.754215.595404-2.583,1.009.072587-.087818.112517-.198067.113-.312v-3.954c-.000038-.249069-.183384-.46013-.43-.495l-2.234-.315l1.358-1.8c.149674-.199036.130062-.477875-.046-.654l-2.8-2.8c-.176266-.176631-.455777-.196261-.655-.046l-1.8,1.358-.313-2.233c-.03487-.246616-.245931-.429962-.495-.43h-3.953c-.249069.000038-.46013.183384-.495.43l-.315,2.235L9.3,5.807c-.199223-.150261-.478734-.130631-.655.046L5.85,8.653c-.176062.176125-.195674.454964-.046.654l1.357,1.8-2.233.315c-.247013.034417-.430892.245601-.431.495v3.954c-.002403.251297.182094.465331.431.5l2.233.314-1.357,1.8c-.150261.199223-.130631.478734.046.655l2.8,2.8c.176266.176631.455777.196261.655.046l1.8-1.358.315,2.235c.03487.246616.245931.429962.495.43h3.953c.114641-.000878.225498-.041125.314-.114-1.066069,2.129045-1.622065,4.476964-1.624,6.858.002287.725126.055082,1.449211.158,2.167l-.475.357-.22-1.571c-.035125-.248508-.249034-.43247-.5-.43h-3.1c-.249069.000038-.46013.183384-.495.43l-.222,1.571L8.44,31.6c-.199036-.149674-.477875-.130062-.654.046L5.593,33.837c-.176062.176125-.195674.454964-.046.654L6.5,35.759l-1.57.22c-.248906.034669-.433403.248703-.431.5v3.1c.000108.249399.183987.460583.431.495l1.57.222-.953,1.264c-.149674.199036-.130062.477875.046.654l2.193,2.193c.176125.176062.454964.195674.654.046L9.707,43.5l.222,1.57c.034417.247013.245601.430892.495.431h3.1c.251297.002403.465331-.182094.5-.431l.22-1.57l1.268.954c.199036.149674.477875.130062.654-.046l2.193-2.193c.176062-.176125.195674-.454964.046-.654l-.954-1.267.905-.128c5.400553,6.227107,14.73748,7.120461,21.220855,2.030404s7.831563-14.372227,3.064145-21.096404ZM11.975,40.926c-1.601626,0-2.9-1.298374-2.9-2.9s1.298374-2.9,2.9-2.9s2.9,1.298374,2.9,2.9-1.298374,2.9-2.9,2.9Zm4.4-18.158l.3-2.149.7.529c-.365941.519179-.699894,1.060182-1,1.62Zm-2.483-5.041c-2.118012,0-3.835-1.716988-3.835-3.835s1.716988-3.835,3.835-3.835s3.835,1.716988,3.835,3.835c-.002755,2.11687-1.71813,3.832245-3.835,3.835Zm7.256-.347l-.529-.7l2.148-.3c-.559847.299498-1.100554.633474-1.619,1Z" fill="#231f20"/><path d="M30.028,44.5c-4.04961-.004323-7.911116-1.709743-10.642-4.7.039651-.069571.061306-.147941.063-.228v-3.1c.00247-.250966-.181492-.464875-.43-.5l-1.571-.22.954-1.268c.149674-.199036.130062-.477875-.046-.654l-2.193-2.193c-.13682-.13439-.338454-.17868-.519-.114-.054196-.498209-.0829-.998862-.086-1.5.003313-7.991461,6.48387-14.467392,14.475332-14.464999s14.468139,6.482203,14.466667,14.473665-6.480537,14.468886-14.471999,14.468334Z" fill="#ffba50"/><path d="M30.005,18.226c-6.51696,0-11.8,5.28304-11.8,11.8s5.28304,11.8,11.8,11.8s11.8-5.28304,11.8-11.8c-.008814-6.513306-5.286694-11.791186-11.8-11.8Z" fill="#231f20"/><path d="M30.005,40.831c-5.964675,0-10.8-4.835325-10.8-10.8s4.835325-10.8,10.8-10.8s10.8,4.835325,10.8,10.8c-.008262,5.96125-4.83875,10.791738-10.8,10.8Z" fill="#fff"/><path d="M19.64,15.806l2.643-.372v-3.084l-2.643-.373c-.176816-.02377-.32757-.139951-.395602-.304877s-.043032-.353605.065602-.495123l1.606-2.132-2.181-2.178L16.6,8.474c-.141518.108634-.330198.133634-.495123.065602s-.281107-.218786-.304877-.395602L15.434,5.5h-3.084l-.372,2.644c-.02377.176816-.139951.32757-.304877.395602s-.353605.043032-.495123-.065602L9.048,6.867L6.867,9.049l1.607,2.132c.108634.141518.133634.330198.065602.495123s-.218786.281107-.395602.304877L5.5,12.35v3.084l2.644.372c.176816.02377.32757.139951.395602.304877s.043032.353605-.065602.495123L6.867,18.735l2.181,2.182l2.134-1.607c.141518-.108634.330198-.133634.495123-.065602s.281107.218786.304877.395602l.372,2.644h3.084l.373-2.644c.02377-.176816.139951-.32757.304877-.395602s.353605-.043032.495123.065602l1.376,1.037c.702308-.871809,1.496191-1.665692,2.368-2.368L19.31,16.6c-.108634-.141518-.133634-.330198-.065602-.495123s.218786-.281107.395602-.304877v.006Zm-5.748,1.921c-2.118012,0-3.835-1.716988-3.835-3.835s1.716988-3.835,3.835-3.835s3.835,1.716988,3.835,3.835c-.002755,2.11687-1.71813,3.832245-3.835,3.835Z" fill="#8d7f89"/><path d="M13.892,9.057c-2.670297,0-4.835,2.164703-4.835,4.835s2.164703,4.835,4.835,4.835s4.835-2.164703,4.835-4.835c-.003306-2.668926-2.166074-4.831694-4.835-4.835Zm0,8.67c-2.118012,0-3.835-1.716988-3.835-3.835s1.716988-3.835,3.835-3.835s3.835,1.716988,3.835,3.835c-.002755,2.11687-1.71813,3.832245-3.835,3.835Z" fill="#231f20"/><path d="M16.469,39.421l1.98-.279v-2.233l-1.98-.278c-.176816-.02377-.32757-.139951-.395602-.304877s-.043032-.353605.065602-.495123l1.2-1.6-1.578-1.578-1.6,1.2c-.141518.108634-.330198.133634-.495123.065602s-.281107-.218786-.304877-.395602l-.278-1.98h-2.225l-.279,1.98c-.02377.176816-.139951.32757-.304877.395602s-.353605.043032-.495123-.065602l-1.6-1.2-1.572,1.583l1.2,1.6c.108674.141659.133565.330517.065305.495496s-.219311.28104-.396305.304504l-1.98.278v2.233l1.98.279c.176994.023464.328045.139526.396305.304504s.043369.353837-.065305.495496l-1.2,1.6l1.579,1.579l1.6-1.2c.141659-.108674.330517-.133565.495496-.065305s.28104.219311.304504.396305l.279,1.98h2.233l.278-1.98c.023464-.176994.139526-.328045.304504-.396305s.353837-.043369.495496.065305l1.6,1.2l1.578-1.579-1.2-1.6c-.108634-.141518-.133634-.330198-.065602-.495123s.218786-.281107.395602-.304877l-.015-.005Zm-4.494,1.505c-1.601626,0-2.9-1.298374-2.9-2.9s1.298374-2.9,2.9-2.9s2.9,1.298374,2.9,2.9-1.298374,2.9-2.9,2.9Z" fill="#8d7f89"/><path d="M11.975,34.125c-2.153911,0-3.9,1.746089-3.9,3.9s1.746089,3.9,3.9,3.9s3.9-1.746089,3.9-3.9c-.002755-2.152768-1.747232-3.897245-3.9-3.9Zm0,6.8c-1.601626,0-2.9-1.298374-2.9-2.9s1.298374-2.9,2.9-2.9s2.9,1.298374,2.9,2.9c.000265.769301-.305152,1.507184-.849037,2.051256s-1.281662.849744-2.050963.849744v-.001Z" fill="#231f20"/><path d="M38.313,29.528h-6.1c-.194051-.849972-.860684-1.511932-1.712-1.7v-6.389c0-.276142-.223858-.5-.5-.5s-.5.223858-.5.5v6.409c-1.077598.25795-1.805835,1.263523-1.714774,2.367817s.974181,1.976993,2.079477,2.05494s2.102155-.662173,2.347297-1.742757h6.1c.276142,0,.5-.223858.5-.5s-.223858-.5-.5-.5Zm-8.285,1.749c-.505173,0-.960604-.304309-1.153926-.771028s-.086462-1.003937.27075-1.361148.894428-.464071,1.361148-.27075.771028.648753.771028,1.153926c-.000551.689575-.559425,1.248449-1.249,1.249Z" fill="#231f20"/><path d="M30.028,36.683c-.276142,0-.5.223858-.5.5v1.626c0,.276142.223858.5.5.5s.5-.223858.5-.5v-1.626c0-.276142-.223858-.5-.5-.5Z" fill="#231f20"/><path d="M23.446,30.028c0-.276142-.223858-.5-.5-.5h-1.626c-.276142,0-.5.223858-.5.5s.223858.5.5.5h1.626c.276142,0,.5-.223858.5-.5Z" fill="#231f20"/><path d="M34,35.984c-.143748-.226126-.440198-.29874-.67218-.164647s-.317021.427222-.19282.664647l.812,1.409c.143748.226126.440198.29874.67218.164647s.317021-.427222.19282-.664647L34,35.984Z" fill="#231f20"/><path d="M26.107,22.309c-.085131-.162739-.252631-.265706-.436275-.268192s-.353869.09591-.443374.256286-.083881.356911.014649.511906l.813,1.408c.089135.154388.253729.249639.432.25.087769-.000004.173992-.023111.25-.067.239134-.138075.321065-.44386.183-.683l-.813-1.408Z" fill="#231f20"/><path d="M23.609,33.146L22.2,33.96c-.162739.085131-.265706.252631-.268192.436275s.09591.353869.256286.443374.356911.083881.511906-.014649l1.408-.813c.155975-.088681.252477-.254137.252871-.433559s-.095378-.345301-.250962-.434667-.347124-.088516-.501909.002226h.001Z" fill="#231f20"/><path d="M36.126,27c.087807.000282.174102-.022845.25-.067l1.409-.813c.155975-.088681.252477-.254137.252871-.433559s-.095378-.345301-.250962-.434667-.347124-.088516-.501909.002226l-1.409.813c-.195971.113157-.29151.343828-.23294.562411s.256646.370579.48294.370589Z" fill="#231f20"/><path d="M37.815,34l-1.408-.813c-.23893-.135845-.54271-.053371-.680137.184653s-.05697.542344.180137.681347l1.408.812c.154995.09853.351531.104154.511906.014649s.258772-.25973.256286-.443374-.105453-.351144-.268192-.436275Z" fill="#231f20"/><path d="M24.141,26.108L22.732,25.3c-.23893-.135845-.54271-.053371-.680137.184653s-.05697.542344.180137.681347l1.409.813c.23893.135845.54271.053371.680137-.184653s.05697-.542344-.180137-.681347v-.005Z" fill="#231f20"/><path d="M26.671,35.748c-.23914-.138065-.544925-.056134-.683.183l-.813,1.408c-.09853.154995-.104154.351531-.014649.511906s.25973.258772.443374.256286.351144-.105453.436275-.268192l.814-1.408c.138065-.23914.056134-.544925-.183-.683Z" fill="#231f20"/><path d="M33.253,24.346c.23914.138065.544925.056134.683-.183l.813-1.408c.09853-.154995.104154-.351531.014649-.511906s-.25973-.258772-.443374-.256286-.351144.105453-.436275.268192l-.814,1.408c-.138065.23914-.056134.544925.183.683Z" fill="#231f20"/><path d="M41.805,15.983l2.269,2.27-2.038,2.038c-.676659-.832654-1.437346-1.593341-2.27-2.27l2.039-2.038Z" fill="#ff8e5a"/><rect width="10.644" height="3.21" rx="0" ry="0" transform="translate(24.707001 5.5)" fill="#ff8e5a"/><path d="M26.729,9.71h6.6v5.21c-2.173364-.484147-4.426636-.484147-6.6,0v-5.21Z" fill="#ff8e5a"/></g></svg>
